<svg xmlns="http://www.w3.org/2000/svg" viewBox="0 0 32 40" x="0px" y="0px"><g><path d="M27,8H9.8286a2.98,2.98,0,0,0-2.1216.8789l-5,5a3.0025,3.0025,0,0,0,0,4.2422l5,5A2.98,2.98,0,0,0,9.8286,24H27a3.0033,3.0033,0,0,0,3-3V11A3.0033,3.0033,0,0,0,27,8ZM23.2251,18.9037c.8336,1.0489-.9088,2.33-1.6484,1.2056l-1.8882-2.51L17.8506,20.09c-.7177,1.1614-2.4586-.144-1.5381-1.1641l2.166-2.9355-2.1767-2.8946c-.8709-1.0205.9422-2.3468,1.6528-1.1987l1.86,2.4717,1.8271-2.4258c.6725-1.152,2.44.0974,1.5791,1.1226L21.0186,15.97Z"/></g><text x="0" y="47" fill="#000000" font-size="5px" font-weight="bold" font-family="'Helvetica Neue', Helvetica, Arial-Unicode, Arial, Sans-serif">Created by Anconer Design</text><text x="0" y="52" fill="#000000" font-size="5px" font-weight="bold" font-family="'Helvetica Neue', Helvetica, Arial-Unicode, Arial, Sans-serif">from the Noun Project</text></svg>