<?xml version="1.0" encoding="utf-8"?>
<!-- Generator: Adobe Illustrator 25.0.0, SVG Export Plug-In . SVG Version: 6.00 Build 0)  -->
<svg xmlns="http://www.w3.org/2000/svg" version="1.1" xmlns:xlink="http://www.w3.org/1999/xlink"
    width="512" height="512" x="0" y="0" viewBox="0 0 496.158 496.158"
    style="enable-background:new 0 0 512 512" xml:space="preserve" class="">
    <g>
        <path d="M248.082.003C111.07.003 0 111.063 0 248.085c0 137.001 111.07 248.07 248.082 248.07 137.006 0 248.076-111.069 248.076-248.07C496.158 111.062 385.088.003 248.082.003z" style="" fill="#337180" data-original="#337180" class=""></path><path d="M394.818 382.733c-7.312-27.279-69.907-49.333-147.073-49.333s-139.095 22.054-146.407 49.333c-3.259 12.158-6.962 35.192-10.126 57.525 42.747 34.934 97.357 55.897 156.87 55.897 59.509 0 114.116-20.963 156.862-55.896-3.164-22.333-6.867-45.368-10.126-57.526z" style="" fill="#261d17" data-original="#261d17" class=""></path><path d="m247.829 316.996-39.523 5.25 1.861 13.166 37.62 28.073 38.204-28.073 1.861-13.166z" style="" fill="#969899" data-original="#969899"></path><path d="m247.829 316.996-37.662 18.417s16.828 28.073 37.62 28.073 38.204-28.073 38.204-28.073l-38.162-18.417z" style="" fill="#7f3e09" data-original="#7f3e09"></path><path d="M247.788 352.746c-20.422 0-30.632-8.469-34.931-13.567l35.298 50.9 35.771-51.793c-3.976 4.924-14.469 14.46-36.138 14.46zm-34.931-13.567-2.612-3.767s.763 1.574 2.612 3.767zm71.07-.893c1.384-1.713 1.984-2.873 1.984-2.873l-1.984 2.873z" style="" fill="#261d17" data-original="#261d17" class=""></path><path d="M286.969 282.118h-77.78c12.136 36.588.978 53.294.978 53.294l26.912 17.334h22l26.912-17.333c0-.001-11.158-16.707.978-53.295z" style="" fill="#e2a176" data-original="#e2a176"></path><path d="m287.852 322.246-39.794 30.5s34.03 6.009 34.198 5.842l23.488-20.796-17.892-15.546zM208.306 322.246l-17.894 15.547 23.489 20.796c.168.167 34.157-5.842 34.157-5.842l-39.752-30.501z" style="" fill="#f3faff" data-original="#f3faff"></path><path d="M248.08 61.579c-48.741 0-88.254 21.167-88.254 113.596 0 31.266 6.19 55.765 15.462 74.673 20.396 41.598 55.7 56.136 72.792 56.136s52.396-14.538 72.79-56.136c9.271-18.908 15.462-43.407 15.462-74.673 0-92.429-39.513-113.596-88.252-113.596z" style="" fill="#f4b382" data-original="#f4b382"></path><path d="M349.668 153.14s8.013-15.536-12.382-29.046c0 0 10.197-2.025 11.653 2.703 0 0-5.099-24.992-20.394-31.747 0 0 6.556-2.026 15.295 6.755 0 0-3.641-18.913-25.49-24.992 0 0 4.369-2.026 11.652 1.352 0 0-5.826-12.159-24.035-16.212 0 0-1.457-6.078 6.555-5.403 0 0-16.022-7.43-31.317-8.106 0 0 5.099-10.806 13.838-10.806 0 0-21.122-6.079-35.688 2.025 0 0-8.012-3.377-2.913-6.079 0 0-39.33-1.351-41.515 19.589 0 0-10.925-.676-20.393-5.404 0 0-9.469 6.755-.729 14.86 0 0-22.578.676-32.775 16.887 0 0 5.099-2.026 11.653-1.351 0 0-17.479 8.78-19.665 23.641 0 0 5.098-2.026 10.925-1.352 0 0-10.196 6.079-14.566 18.237 0 0 4.37-1.351 10.925-2.025 0 0-22.578 17.562-22.578 42.553 0 0 8.74-13.509 13.838-13.509 0 0-2.914 21.614 2.914 45.931 0 0 3.641-11.482 7.283-10.807 0 0-.729 18.912 10.925 31.746 0 0 0-43.904 8.011-44.581 0 0 4.371 6.08 9.469 10.133 0 0-9.469-53.36 13.839-57.414 0 0 7.283 39.853 35.688 45.256 0 0-9.468-28.369-8.739-39.176 0 0 30.59 14.184 40.059 42.553 0 0 3.641-15.535-1.457-39.176 0 0 15.295 8.104 13.838 35.124 0 0 11.653-4.729 12.382-20.264 0 0 9.468 14.859 5.099 30.395 0 0 2.186 3.377 6.555-4.053 0 0 17.654 8.703 16.654 37.149 0 0 18.456-23.446 12.75-47.281 0 0 5.229 12.834 4.5 21.615 0 0 4.697-19.589-.4-42.554-.003 0 6.551 5.403 8.736 12.834z" style="" fill="#261d17" data-original="#261d17" class=""></path><path d="M212.079 178.976c-16.753 0-30.333 2.929-30.333 23.847 0 13.171 7.531 26.358 30.333 26.358 16.751 0 30.332-13.187 30.332-26.358 0-13.17-13.581-23.847-30.332-23.847zm0 45.012c-18.084 0-24.058-10.459-24.058-20.905 0-16.591 10.771-18.914 24.058-18.914 13.286 0 24.057 8.468 24.057 18.914s-10.771 20.905-24.057 20.905z" style="" fill="#261d17" data-original="#261d17" class=""></path><path d="M212.079 184.17c-13.287 0-24.058 2.323-24.058 18.914 0 10.446 5.974 20.905 24.058 20.905 13.286 0 24.057-10.459 24.057-20.905s-10.771-18.914-24.057-18.914z" style="" fill="#f4c4a4" data-original="#f4c4a4"></path><path d="M212.079 184.17c-13.287 0-24.058 2.323-24.058 18.914 0 8.76 4.205 17.524 16.225 20.127l14.396-38.322a30.177 30.177 0 0 0-6.563-.719z" style="" fill="#f4ccb0" data-original="#f4ccb0"></path><path d="m218.642 184.889-14.396 38.322c2.314.501 4.913.777 7.833.777 13.286 0 24.057-10.459 24.057-20.905 0-8.655-7.399-15.947-17.494-18.194z" style="" fill="#f4c4a4" data-original="#f4c4a4"></path><path d="m187.619 190.714-11.666-12.667a3 3 0 0 0-4.414 4.065l11.666 12.667a2.99 2.99 0 0 0 2.208.968 3.001 3.001 0 0 0 2.206-5.033zM325.111 177.873a2.998 2.998 0 0 0-4.239.174l-11.666 12.667a3 3 0 0 0 4.414 4.064l11.666-12.667a2.999 2.999 0 0 0-.175-4.238z" style="" fill="#261d17" data-original="#261d17" class=""></path><path d="M284.079 178.976c-16.751 0-30.332 10.677-30.332 23.847 0 13.171 13.581 26.358 30.332 26.358 22.802 0 30.333-13.187 30.333-26.358 0-20.918-13.58-23.847-30.333-23.847zm0 45.012c-13.286 0-24.057-10.459-24.057-20.905s10.771-18.914 24.057-18.914c13.287 0 24.058 2.323 24.058 18.914 0 10.446-5.974 20.905-24.058 20.905z" style="" fill="#261d17" data-original="#261d17" class=""></path><path d="M284.079 184.17c-13.286 0-24.057 8.468-24.057 18.914s10.771 20.905 24.057 20.905c18.084 0 24.058-10.459 24.058-20.905 0-16.591-10.771-18.914-24.058-18.914z" style="" fill="#f4c4a4" data-original="#f4c4a4"></path><path d="M284.079 184.17c-2.276 0-4.476.254-6.563.719-10.095 2.247-17.493 9.539-17.493 18.195 0 8.641 7.372 17.284 17.438 20.015l14.472-38.521c-2.463-.305-5.103-.408-7.854-.408z" style="" fill="#f4ccb0" data-original="#f4ccb0"></path><path d="m291.933 184.578-14.472 38.521a25.23 25.23 0 0 0 6.618.89c2.92 0 5.519-.276 7.833-.777 12.02-2.603 16.225-11.368 16.225-20.127 0-13.157-6.776-17.339-16.204-18.507z" style="" fill="#f4c4a4" data-original="#f4c4a4"></path><path d="M261.276 195.705h-26.403c-.242 0 4.793 10.417 4.988 10.417l18.949-.001c.197-.001 2.711-10.416 2.466-10.416z" style="" fill="#261d17" data-original="#261d17" class=""></path><path d="M257.145 206.246c-2.618-1.846-5.792-3.667-9.173-3.667-2.577 0-5.031 1.385-7.212 2.489-3.427 1.732-3.43 11.156-3.43 11.156 1.955-4.083 6.135-6.72 10.642-6.72s8.686 2.638 10.642 6.72c0 0 1.039-8.21-1.469-9.978z" style="" fill="#261d17" data-original="#261d17" class=""></path><path d="M161.396 178.019c-8.438 1.443-14.856 5.077-10.096 32.922s10.673 29.141 19.112 27.698l-9.016-60.62zM334.86 178.019l-9.016 60.62c8.438 1.443 14.35.148 19.111-27.698 4.762-27.845-1.657-31.479-10.095-32.922z" style="" fill="#f4b382" data-original="#f4b382"></path></g></svg>
